<svg width="375" height="184" viewBox="0 0 375 184" fill="none" xmlns="http://www.w3.org/2000/svg">
<circle cx="187.5" cy="92" r="74" fill="#FA5769"/>
<path d="M246.848 32.6004C231.012 16.7126 209.897 8 187.5 8C165.052 8 143.937 16.7126 128.1 32.6004C112.213 48.4369 103.5 69.5522 103.5 92C103.5 114.448 112.213 135.512 128.1 151.4C143.937 167.236 165.052 176 187.5 176C209.948 176 231.012 167.287 246.9 151.4C262.736 135.563 271.5 114.448 271.5 92C271.449 69.5522 262.736 48.4369 246.848 32.6004Z" fill="#2C64E3"/>
<path d="M176.96 107.158L160.462 90.5846C157.285 87.3934 152.059 87.3934 148.882 90.5846C145.706 93.7757 145.706 99.0257 148.882 102.217L171.17 124.607C174.347 127.798 179.573 127.798 182.749 124.607L229.118 78.0257C232.294 74.8346 232.294 69.5846 229.118 66.3934C225.941 63.2022 220.715 63.2022 217.538 66.3934L176.96 107.158Z" fill="white"/>
</svg>
