<svg width="375" height="184" viewBox="0 0 375 184" fill="none" xmlns="http://www.w3.org/2000/svg">
<path d="M181.102 13.5782C156.755 15.7438 135.263 28.5078 121.744 48.8516C119.185 52.6907 115.181 60.6313 113.541 65.0938C109.931 74.9703 108.225 87.0453 109.013 97.1516C109.899 108.603 112.163 116.905 117.117 126.945C124.795 142.531 136.969 154.705 152.555 162.383C158.33 165.238 162.267 166.714 167.649 168.092C186.647 172.948 205.744 170.914 222.938 162.186C238.327 154.409 250.303 142.302 257.883 126.945C260.705 121.236 262.28 117.102 263.592 111.917C267.858 95.3469 266.742 78.1203 260.442 62.6328C249.614 36.0219 225.431 17.45 197.049 13.9391C192.98 13.4141 184.875 13.25 181.102 13.5782ZM159.281 51.6407C160.299 52.1328 165.024 56.6282 174.211 65.7828L187.697 79.2032L200.953 65.7828C210.239 56.3985 214.669 52.1328 215.686 51.6407C217.72 50.6235 220.116 50.4594 222.445 51.1157C225.038 51.8703 227.564 54.3969 228.319 56.8907C229.008 59.2532 228.975 60.7625 228.155 63.0266C227.531 64.8313 226.711 65.7172 213.816 78.4813L200.166 92.0328L213.98 105.88C227.63 119.53 227.827 119.759 228.352 121.663C230.353 128.586 224.086 134.853 217.163 132.852C215.26 132.327 215.03 132.097 201.38 118.48L187.5 104.666L173.62 118.48C159.97 132.097 159.741 132.327 157.838 132.852C150.914 134.853 144.647 128.586 146.649 121.663C147.174 119.759 147.37 119.53 161.02 105.847L174.867 92L161.25 78.4157C149.372 66.5703 147.535 64.6344 146.911 63.0922C146.025 60.9922 145.96 59.2532 146.681 56.8907C147.37 54.561 149.963 51.9032 152.26 51.1813C154.392 50.4922 157.411 50.6891 159.281 51.6407Z" fill="#FA5769"/>
</svg>
